# xmcd CD database file
#
# Track frame offsets:
#	3770
#	5083
#	21397
#	24692
#	40308
#	43223
#	61050
#	72150
#	73558
#	85108
#	86187
#
# Disc length: 1376 seconds
#
# Revision: 5
# Processed by: cddbd v1.5PL3 Copyright (c) Steve Scherf et al.
# Submitted via: CDex 1.50beta10
#
DISCID=97052e0b
DTITLE=ぽち - SONG
DYEAR=2001
DGENRE=A Cappella
TTITLE0=intro〜DJ K〜
TTITLE1=ESCAPE
TTITLE2=P.O.C.H.I
TTITLE3=Thank you
TTITLE4=SONG
TTITLE5=夜空ノムコウ
TTITLE6=Voice Percussion and Bass Session
TTITLE7=interlude〜ピー・オー・シー・エイチ・アイP〜
TTITLE8=BELIEVE
TTITLE9=interlude〜まもまも〜
TTITLE10=Hard to say I’m sorry
EXTD=YEAR: 2001
EXTT0=
EXTT1=
EXTT2=
EXTT3=
EXTT4=
EXTT5=
EXTT6=
EXTT7=
EXTT8=
EXTT9=
EXTT10=
PLAYORDER=
